# xmcd
#
# Track frame offsets:
#       150
#       11144
#       20973
#       32373
#       45890
#       62253
#       70917
#       78321
#       86025
#       95949
#       105354
#       117626
#       127870
#       136597
#
# Disc length: 1984 seconds
#
# Revision: 1
# Processed by: cddbd v1.5.2PL0 Copyright (c) Steve Scherf et al.
# Submitted via: WaveLab 6.10
#
DISCID=ac07be0e
DTITLE=De Electronica's - De Electronica's Spelen Voor U
DYEAR=2008
DGENRE=instrumental
TTITLE0=Noodlot
TTITLE1=Ruimtemars
TTITLE2=Have I Told You Lately That I Love You
TTITLE3=Apollowals
TTITLE4=Mexicali Rose
TTITLE5=Electronicapolka
TTITLE6=Rote Rosen, rote Lippen, roter Wein
TTITLE7=Meisjelief, Je Bent Van Mu
TTITLE8=Cielito Limbo
TTITLE9=Aloha Oe
TTITLE10=Patjar Keling
TTITLE11=Hoch Heidecksburg
TTITLE12=Wien bleibt Wien
TTITLE13=Stratendans
EXTD=
EXTT0=
EXTT1=
EXTT2=
EXTT3=
EXTT4=
EXTT5=
EXTT6=
EXTT7=
EXTT8=
EXTT9=
EXTT10=
EXTT11=
EXTT12=
EXTT13=
PLAYORDER=
